dataset
version=1
nRows=30
nColumns=39
inDegrees=no
endheader
time	sternoclavicular_r2	sternoclavicular_r3	unrotscap_r3	unrotscap_r2	acromioclavicular_r2	acromioclavicular_r3	acromioclavicular_r1	unrothum_r1	unrothum_r3	unrothum_r2	elv_angle	shoulder_elv	shoulder1_r2	shoulder_rot	elbow_flexion	pro_sup	deviation	flexion	cmc_abduction	cmc_flexion	mp_flexion	ip_flexion	mcp2_flexion	mcp2_abduction	pm2_flexion	md2_flexion	mcp3_flexion	mcp3_abduction	pm3_flexion	md3_flexion	mcp4_flexion	mcp4_abduction	pm4_flexion	md4_flexion	mcp5_flexion	mcp5_abduction	pm5_flexion	md5_flexion
0.000000	-0.011538	-0.298251	0.153058	0.010643	-0.012118	0.107473	-0.111017	-0.092569	-0.020781	0.051101	0.009625	0.027437	0.146525	0.146525	1.368708	0.904238	0.000000	0.000000	0.000000	0.000000	0.000000	0.000000	0.000000	0.000000	0.000000	0.000000	0.000000	0.000000	0.000000	0.000000	0.000000	0.000000	0.000000	0.000000	0.000000	0.000000	0.000000	0.000000
0.005000	-0.011534	-0.298237	0.153082	0.010622	-0.012142	0.107486	-0.111035	-0.092548	-0.020831	0.051075	0.009589	0.027437	0.146525	0.146525	1.368944	0.908328	0.000000	0.000000	0.000000	0.000000	0.000000	0.000000	0.000000	0.000000	0.000000	0.000000	0.000000	0.000000	0.000000	0.000000	0.000000	0.000000	0.000000	0.000000	0.000000	0.000000	0.000000	0.000000
0.010000	-0.011529	-0.298220	0.153091	0.010596	-0.012168	0.107488	-0.111045	-0.092548	-0.020858	0.051050	0.009556	0.027437	0.146525	0.146525	1.369182	0.912375	0.000000	0.000000	0.000000	0.000000	0.000000	0.000000	0.000000	0.000000	0.000000	0.000000	0.000000	0.000000	0.000000	0.000000	0.000000	0.000000	0.000000	0.000000	0.000000	0.000000	0.000000	0.000000
0.015000	-0.011524	-0.298202	0.153093	0.010568	-0.012196	0.107484	-0.111050	-0.092559	-0.020871	0.051024	0.009527	0.027437	0.146525	0.146525	1.369421	0.916381	0.000000	0.000000	0.000000	0.000000	0.000000	0.000000	0.000000	0.000000	0.000000	0.000000	0.000000	0.000000	0.000000	0.000000	0.000000	0.000000	0.000000	0.000000	0.000000	0.000000	0.000000	0.000000
0.020000	-0.011519	-0.298183	0.153091	0.010539	-0.012224	0.107477	-0.111052	-0.092577	-0.020877	0.050999	0.009498	0.027437	0.146525	0.146525	1.369662	0.920346	0.000000	0.000000	0.000000	0.000000	0.000000	0.000000	0.000000	0.000000	0.000000	0.000000	0.000000	0.000000	0.000000	0.000000	0.000000	0.000000	0.000000	0.000000	0.000000	0.000000	0.000000	0.000000
0.025000	-0.011513	-0.298163	0.153087	0.010510	-0.012252	0.107468	-0.111053	-0.092599	-0.020879	0.050975	0.009471	0.027437	0.146525	0.146525	1.369904	0.924270	0.000000	0.000000	0.000000	0.000000	0.000000	0.000000	0.000000	0.000000	0.000000	0.000000	0.000000	0.000000	0.000000	0.000000	0.000000	0.000000	0.000000	0.000000	0.000000	0.000000	0.000000	0.000000
0.030000	-0.011507	-0.298144	0.153082	0.010481	-0.012279	0.107458	-0.111054	-0.092624	-0.020877	0.050951	0.009445	0.027437	0.146525	0.146525	1.370146	0.928152	0.000000	0.000000	0.000000	0.000000	0.000000	0.000000	0.000000	0.000000	0.000000	0.000000	0.000000	0.000000	0.000000	0.000000	0.000000	0.000000	0.000000	0.000000	0.000000	0.000000	0.000000	0.000000
0.035000	-0.011502	-0.298124	0.153077	0.010453	-0.012306	0.107447	-0.111055	-0.092650	-0.020874	0.050928	0.009420	0.027437	0.146525	0.146525	1.370391	0.931995	0.000000	0.000000	0.000000	0.000000	0.000000	0.000000	0.000000	0.000000	0.000000	0.000000	0.000000	0.000000	0.000000	0.000000	0.000000	0.000000	0.000000	0.000000	0.000000	0.000000	0.000000	0.000000
0.040000	-0.011496	-0.298105	0.153071	0.010424	-0.012333	0.107437	-0.111056	-0.092678	-0.020869	0.050905	0.009396	0.027437	0.146525	0.146525	1.370637	0.935798	0.000000	0.000000	0.000000	0.000000	0.000000	0.000000	0.000000	0.000000	0.000000	0.000000	0.000000	0.000000	0.000000	0.000000	0.000000	0.000000	0.000000	0.000000	0.000000	0.000000	0.000000	0.000000
0.045000	-0.011490	-0.298085	0.153065	0.010396	-0.012359	0.107426	-0.111057	-0.092707	-0.020862	0.050883	0.009372	0.027437	0.146525	0.146525	1.370884	0.939561	0.000000	0.000000	0.000000	0.000000	0.000000	0.000000	0.000000	0.000000	0.000000	0.000000	0.000000	0.000000	0.000000	0.000000	0.000000	0.000000	0.000000	0.000000	0.000000	0.000000	0.000000	0.000000
0.050000	-0.011485	-0.298066	0.153060	0.010369	-0.012385	0.107415	-0.111058	-0.092736	-0.020855	0.050861	0.009349	0.027437	0.146525	0.146525	1.371133	0.943286	0.000000	0.000000	0.000000	0.000000	0.000000	0.000000	0.000000	0.000000	0.000000	0.000000	0.000000	0.000000	0.000000	0.000000	0.000000	0.000000	0.000000	0.000000	0.000000	0.000000	0.000000	0.000000
0.055000	-0.011479	-0.298047	0.153055	0.010343	-0.012410	0.107404	-0.111059	-0.092767	-0.020846	0.050840	0.009327	0.027437	0.146525	0.146525	1.371384	0.946971	0.000000	0.000000	0.000000	0.000000	0.000000	0.000000	0.000000	0.000000	0.000000	0.000000	0.000000	0.000000	0.000000	0.000000	0.000000	0.000000	0.000000	0.000000	0.000000	0.000000	0.000000	0.000000
0.060000	-0.011474	-0.298028	0.153050	0.010316	-0.012434	0.107393	-0.111061	-0.092799	-0.020836	0.050820	0.009306	0.027437	0.146525	0.146525	1.371637	0.950618	0.000000	0.000000	0.000000	0.000000	0.000000	0.000000	0.000000	0.000000	0.000000	0.000000	0.000000	0.000000	0.000000	0.000000	0.000000	0.000000	0.000000	0.000000	0.000000	0.000000	0.000000	0.000000
0.065000	-0.011468	-0.298009	0.153045	0.010291	-0.012458	0.107382	-0.111064	-0.092831	-0.020826	0.050800	0.009285	0.027437	0.146525	0.146525	1.371892	0.954227	0.000000	0.000000	0.000000	0.000000	0.000000	0.000000	0.000000	0.000000	0.000000	0.000000	0.000000	0.000000	0.000000	0.000000	0.000000	0.000000	0.000000	0.000000	0.000000	0.000000	0.000000	0.000000
0.070000	-0.011463	-0.297991	0.153041	0.010266	-0.012481	0.107371	-0.111066	-0.092864	-0.020814	0.050781	0.009266	0.027437	0.146525	0.146525	1.372149	0.957798	0.000000	0.000000	0.000000	0.000000	0.000000	0.000000	0.000000	0.000000	0.000000	0.000000	0.000000	0.000000	0.000000	0.000000	0.000000	0.000000	0.000000	0.000000	0.000000	0.000000	0.000000	0.000000
0.075000	-0.011457	-0.297972	0.153037	0.010242	-0.012504	0.107361	-0.111069	-0.092898	-0.020802	0.050763	0.009247	0.027437	0.146525	0.146525	1.372409	0.961333	0.000000	0.000000	0.000000	0.000000	0.000000	0.000000	0.000000	0.000000	0.000000	0.000000	0.000000	0.000000	0.000000	0.000000	0.000000	0.000000	0.000000	0.000000	0.000000	0.000000	0.000000	0.000000
0.080000	-0.011452	-0.297954	0.153033	0.010219	-0.012526	0.107350	-0.111072	-0.092932	-0.020789	0.050745	0.009228	0.027437	0.146525	0.146525	1.372670	0.964830	0.000000	0.000000	0.000000	0.000000	0.000000	0.000000	0.000000	0.000000	0.000000	0.000000	0.000000	0.000000	0.000000	0.000000	0.000000	0.000000	0.000000	0.000000	0.000000	0.000000	0.000000	0.000000
0.085000	-0.011447	-0.297937	0.153029	0.010196	-0.012547	0.107340	-0.111076	-0.092967	-0.020775	0.050728	0.009211	0.027437	0.146525	0.146525	1.372934	0.968291	0.000000	0.000000	0.000000	0.000000	0.000000	0.000000	0.000000	0.000000	0.000000	0.000000	0.000000	0.000000	0.000000	0.000000	0.000000	0.000000	0.000000	0.000000	0.000000	0.000000	0.000000	0.000000
0.090000	-0.011442	-0.297920	0.153026	0.010174	-0.012567	0.107329	-0.111080	-0.093002	-0.020760	0.050712	0.009194	0.027437	0.146525	0.146525	1.373200	0.971715	0.000000	0.000000	0.000000	0.000000	0.000000	0.000000	0.000000	0.000000	0.000000	0.000000	0.000000	0.000000	0.000000	0.000000	0.000000	0.000000	0.000000	0.000000	0.000000	0.000000	0.000000	0.000000
0.095000	-0.011437	-0.297903	0.153023	0.010152	-0.012587	0.107319	-0.111085	-0.093038	-0.020744	0.050696	0.009178	0.027437	0.146525	0.146525	1.373468	0.975104	0.000000	0.000000	0.000000	0.000000	0.000000	0.000000	0.000000	0.000000	0.000000	0.000000	0.000000	0.000000	0.000000	0.000000	0.000000	0.000000	0.000000	0.000000	0.000000	0.000000	0.000000	0.000000
0.100000	-0.011432	-0.297886	0.153021	0.010131	-0.012606	0.107309	-0.111089	-0.093075	-0.020728	0.050681	0.009163	0.027437	0.146525	0.146525	1.373739	0.978457	0.000000	0.000000	0.000000	0.000000	0.000000	0.000000	0.000000	0.000000	0.000000	0.000000	0.000000	0.000000	0.000000	0.000000	0.000000	0.000000	0.000000	0.000000	0.000000	0.000000	0.000000	0.000000
0.105000	-0.011427	-0.297870	0.153018	0.010111	-0.012624	0.107300	-0.111094	-0.093111	-0.020712	0.050666	0.009149	0.027437	0.146525	0.146525	1.374012	0.981775	0.000000	0.000000	0.000000	0.000000	0.000000	0.000000	0.000000	0.000000	0.000000	0.000000	0.000000	0.000000	0.000000	0.000000	0.000000	0.000000	0.000000	0.000000	0.000000	0.000000	0.000000	0.000000
0.110000	-0.011423	-0.297855	0.153017	0.010092	-0.012642	0.107290	-0.111100	-0.093148	-0.020694	0.050653	0.009135	0.027437	0.146525	0.146525	1.374287	0.985059	0.000000	0.000000	0.000000	0.000000	0.000000	0.000000	0.000000	0.000000	0.000000	0.000000	0.000000	0.000000	0.000000	0.000000	0.000000	0.000000	0.000000	0.000000	0.000000	0.000000	0.000000	0.000000
0.115000	-0.011418	-0.297840	0.153015	0.010074	-0.012659	0.107281	-0.111105	-0.093185	-0.020676	0.050640	0.009122	0.027437	0.146525	0.146525	1.374565	0.988308	0.000000	0.000000	0.000000	0.000000	0.000000	0.000000	0.000000	0.000000	0.000000	0.000000	0.000000	0.000000	0.000000	0.000000	0.000000	0.000000	0.000000	0.000000	0.000000	0.000000	0.000000	0.000000
0.120000	-0.011414	-0.297825	0.153014	0.010056	-0.012675	0.107271	-0.111111	-0.093222	-0.020658	0.050628	0.009110	0.027437	0.146525	0.146525	1.374844	0.991523	0.000000	0.000000	0.000000	0.000000	0.000000	0.000000	0.000000	0.000000	0.000000	0.000000	0.000000	0.000000	0.000000	0.000000	0.000000	0.000000	0.000000	0.000000	0.000000	0.000000	0.000000	0.000000
0.125000	-0.011409	-0.297810	0.153012	0.010039	-0.012691	0.107262	-0.111117	-0.093260	-0.020639	0.050616	0.009099	0.027437	0.146525	0.146525	1.375126	0.994705	0.000000	0.000000	0.000000	0.000000	0.000000	0.000000	0.000000	0.000000	0.000000	0.000000	0.000000	0.000000	0.000000	0.000000	0.000000	0.000000	0.000000	0.000000	0.000000	0.000000	0.000000	0.000000
0.130000	-0.011405	-0.297796	0.153012	0.010022	-0.012706	0.107254	-0.111124	-0.093297	-0.020620	0.050605	0.009088	0.027437	0.146525	0.146525	1.375410	0.997853	0.000000	0.000000	0.000000	0.000000	0.000000	0.000000	0.000000	0.000000	0.000000	0.000000	0.000000	0.000000	0.000000	0.000000	0.000000	0.000000	0.000000	0.000000	0.000000	0.000000	0.000000	0.000000
0.135000	-0.011401	-0.297783	0.153011	0.010007	-0.012720	0.107245	-0.111130	-0.093334	-0.020601	0.050595	0.009078	0.027437	0.146525	0.146525	1.375696	1.000968	0.000000	0.000000	0.000000	0.000000	0.000000	0.000000	0.000000	0.000000	0.000000	0.000000	0.000000	0.000000	0.000000	0.000000	0.000000	0.000000	0.000000	0.000000	0.000000	0.000000	0.000000	0.000000
0.140000	-0.011397	-0.297770	0.153010	0.009992	-0.012733	0.107236	-0.111137	-0.093371	-0.020581	0.050585	0.009069	0.027437	0.146525	0.146525	1.375984	1.004051	0.000000	0.000000	0.000000	0.000000	0.000000	0.000000	0.000000	0.000000	0.000000	0.000000	0.000000	0.000000	0.000000	0.000000	0.000000	0.000000	0.000000	0.000000	0.000000	0.000000	0.000000	0.000000
0.145000	-0.011393	-0.297757	0.153010	0.009978	-0.012746	0.107228	-0.111144	-0.093408	-0.020561	0.050576	0.009061	0.027437	0.146525	0.146525	1.376273	1.007101	0.000000	0.000000	0.000000	0.000000	0.000000	0.000000	0.000000	0.000000	0.000000	0.000000	0.000000	0.000000	0.000000	0.000000	0.000000	0.000000	0.000000	0.000000	0.000000	0.000000	0.000000	0.000000
